<svg data-v-fde0c5aa="" xmlns="http://www.w3.org/2000/svg" viewBox="0 0 300 300" class="iconLeft"><!----><defs data-v-fde0c5aa=""><!----></defs><rect data-v-fde0c5aa="" fill="#0c0f1a" x="0" y="0" width="300px" height="300px" class="logo-background-square"></rect><defs data-v-fde0c5aa=""><!----></defs><g data-v-fde0c5aa="" id="2ab93184-f200-400d-9832-e6718cc3e554" fill="#F1F1F3" transform="matrix(2.117545936539344,0,0,2.117545936539344,88.94463791856397,134.84895844288997)"><path d="M5.54 9.56C3.15 9.56 2.52 7.43 2.52 5.53C2.52 2.88 3.60 1.64 5.54 1.64C6.01 1.64 6.71 1.72 7.21 1.86L7.85 3.70L8.86 3.54L8.86 1.36C7.81 0.76 6.79 0.46 5.54 0.46C2.13 0.46 0.42 3.02 0.42 5.60C0.42 8.18 1.90 10.74 5.54 10.74C6.69 10.74 8.08 10.39 8.86 9.83L8.86 7.56L7.87 7.42L7.15 9.37C6.69 9.49 5.95 9.56 5.54 9.56ZM13.15 3.81C11.02 3.81 9.65 5.14 9.65 7.22C9.65 9.31 10.89 10.64 13.15 10.64C15.41 10.64 16.63 9.37 16.63 7.22C16.63 5.08 15.26 3.81 13.15 3.81ZM13.15 4.69C14.18 4.69 14.85 5.61 14.85 7.18C14.85 8.74 14.21 9.76 13.15 9.76C12.05 9.76 11.45 8.72 11.45 7.18C11.45 5.64 12.11 4.69 13.15 4.69ZM21.97 1.69C24.02 1.69 24.98 3.40 24.98 5.50C24.98 7.62 24.02 9.51 21.97 9.51L20.79 9.51L20.79 1.69ZM21.92 10.50C25.42 10.50 27.06 8.25 27.06 5.53C27.06 2.81 25.45 0.70 21.97 0.70L17.82 0.70L17.68 1.69L18.86 2.16L18.86 9.07L17.70 9.51L17.84 10.50ZM30.00 6.38C30.13 5.38 30.72 4.69 31.63 4.69C32.35 4.69 32.91 5.15 32.91 5.98C32.91 6.10 32.90 6.24 32.87 6.38ZM31.93 9.63C30.73 9.63 29.99 8.65 29.96 7.25L34.37 7.25C34.54 6.96 34.68 6.45 34.68 6.08C34.68 4.70 33.31 3.81 31.63 3.81C29.62 3.81 28.04 5.08 28.04 7.22C28.04 9.30 29.20 10.65 31.86 10.65C32.79 10.65 33.67 10.43 34.57 9.70L34.09 8.99C33.38 9.46 32.65 9.63 31.93 9.63ZM41.96 5.12L42.88 4.82L42.71 3.96L40.25 3.96L40.08 4.82L40.92 5.11L39.19 9.09L39.19 7.81L37.98 5.12L38.78 4.82L38.61 3.96L35.34 3.96L35.17 4.82L36.08 5.12L38.49 10.65L39.77 10.50ZM43.79 3.12C43.79 5.08 45.16 5.71 46.24 6.24C47.21 6.72 48.87 7.27 48.87 8.37C48.87 9.13 47.96 9.56 46.83 9.56C46.47 9.56 45.86 9.41 45.54 9.25L44.83 7.42L43.83 7.56L43.83 9.83C44.62 10.39 45.78 10.74 46.93 10.74C49.43 10.74 50.62 9.56 50.62 7.94C50.62 6.26 49.22 5.33 47.75 4.72C47.22 4.45 45.56 3.91 45.56 2.88C45.56 2.10 46.19 1.64 47.21 1.64C47.63 1.64 48.16 1.71 48.54 1.82L49.20 3.70L50.20 3.54L50.20 1.36C49.34 0.84 48.30 0.46 47.21 0.46C45.42 0.46 43.79 1.34 43.79 3.12ZM54.54 10.50L54.84 10.50C57.01 10.50 58.72 9.11 58.72 7.04C58.72 4.89 57.51 3.81 55.52 3.81C54.91 3.81 54.18 4.05 53.75 4.24L53.14 3.81L51.27 3.96L51.44 4.82L52.21 4.82L52.21 12.68L51.32 12.99L51.49 13.85L54.68 13.85L54.85 12.99L53.96 12.68L53.96 5.10C54.43 4.91 54.95 4.82 55.41 4.82C56.20 4.82 56.80 5.32 56.80 6.94C56.80 8.62 55.72 9.65 54.81 9.65L54.54 9.65ZM60.23 5.74L61.17 5.91L61.47 4.84C61.74 4.77 62.17 4.69 62.51 4.69C63.13 4.69 63.70 5.08 63.70 5.88L63.70 6.37C61.94 6.37 59.71 6.80 59.71 8.71C59.71 9.98 60.82 10.65 62.08 10.65C62.89 10.65 63.46 10.47 63.88 10.18L64.30 10.50L66.08 10.50L66.25 9.65L65.46 9.34L65.46 6.44C65.46 4.75 64.39 3.81 62.58 3.81C61.88 3.81 61.04 3.99 60.23 4.40ZM63.70 9.07C63.46 9.42 62.97 9.63 62.59 9.63C62.20 9.63 61.63 9.38 61.63 8.58C61.63 7.78 62.40 7.24 63.70 7.24ZM70.77 4.69C71.04 4.69 71.54 4.75 71.83 4.86L72.13 5.91L73.07 5.74L73.07 4.40C72.25 3.99 71.41 3.81 70.74 3.81C68.53 3.81 66.95 5.08 66.95 7.24C66.95 9.30 68.19 10.65 70.71 10.65C71.64 10.65 72.59 10.33 73.28 9.70L72.80 8.99C72.18 9.41 71.40 9.63 70.78 9.63C69.36 9.63 68.87 8.44 68.87 6.97C68.87 5.54 69.64 4.69 70.77 4.69ZM76.10 6.38C76.23 5.38 76.82 4.69 77.73 4.69C78.46 4.69 79.02 5.15 79.02 5.98C79.02 6.10 79.00 6.24 78.97 6.38ZM78.04 9.63C76.83 9.63 76.09 8.65 76.06 7.25L80.47 7.25C80.64 6.96 80.78 6.45 80.78 6.08C80.78 4.70 79.41 3.81 77.73 3.81C75.73 3.81 74.14 5.08 74.14 7.22C74.14 9.30 75.31 10.65 77.97 10.65C78.89 10.65 79.77 10.43 80.67 9.70L80.19 8.99C79.48 9.46 78.75 9.63 78.04 9.63Z"></path></g><defs data-v-fde0c5aa=""><!----></defs><g data-v-fde0c5aa="" id="9f3364cd-2b81-4d92-a235-c0339c4bb643" stroke="none" fill="#0BDA51" transform="matrix(0.5182778028882912,0,0,0.5182778028882912,35.09450051657941,126.67749973499629)"><path d="M38.182 57.753L20.18 47.91v-5.455l18.002-9.803v6.422l-12.557 6.039 12.557 6.266zM39.848 62.08l6.503-34.162h3.785L43.56 62.08zM51.8 57.78V51.4l12.572-6.219L51.8 39.028v-6.332L69.82 42.5v5.41z"></path><path d="M44.999 86.031L9.465 65.517V24.484L44.999 3.969l35.536 20.516v41.029L44.999 86.031zM13.07 63.434l31.929 18.434L76.93 63.434V26.566L44.999 8.131 13.07 26.565v36.869z"></path></g><!----></svg>